# xmcd CD database file
#
# Track frame offsets:
#	150
#	18643
#	41738
#	60541
#	87124
#	110906
#	121940
#	147169
#	158598
#	183651
#	199805
#	222780
#	244767
#
# Disc length: 3499 seconds
#
# Revision: 0
# Processed by: cddbd v1.5.2PL0 Copyright (c) Steve Scherf et al.
# Submitted via: CDex 1.51
#
DISCID=b80da90d
DTITLE=Volker Strifler - The Dance Goes On
DYEAR=2006
DGENRE=Blues
TTITLE0=The Dance Goes On
TTITLE1=Somebody Helps Me
TTITLE2=Soul Salvation
TTITLE3=On A Day Like Today
TTITLE4=Angel
TTITLE5=Evil
TTITLE6=Spoonfull
TTITLE7=Wake Up
TTITLE8=Listen To The Rain
TTITLE9=Constantine
TTITLE10=Sometimes I Wonder
TTITLE11=Downtown Living
TTITLE12=Shuffelupagus
EXTD=YEAR: 2006
EXTT0=
EXTT1=
EXTT2=
EXTT3=
EXTT4=
EXTT5=
EXTT6=
EXTT7=
EXTT8=
EXTT9=
EXTT10=
EXTT11=
EXTT12=
PLAYORDER=
